# xmcd
#
# Track frame offsets: 
#        150
#        20080
#        42342
#
# Disc length: 954 seconds
#
# Revision: 0
# Processed by: cddbd v1.5.2PL0 Copyright (c) Steve Scherf et al.
# Submitted via: ExactAudioCopy v0.99pb3
#
DISCID=2003b803
DTITLE=Herbert Grönemeyer - Fisch im Netz (maxi)
DYEAR=1993
DGENRE=Rock
TTITLE0=Fisch im Netz
TTITLE1=Die Welle
TTITLE2=Fisch im Netz (Extended Version)
EXTD=
EXTT0=
EXTT1=
EXTT2=
PLAYORDER=
